<mxfile host="app.diagrams.net" agent="Mozilla/5.0 (Windows NT 10.0; Win64; x64; rv:136.0) Gecko/20100101 Firefox/136.0" version="26.1.1">
  <diagram name="Page-1" id="h8QOh2-1q0Bqk3JcoFy_">
    <mxGraphModel dx="1050" dy="558" grid="1" gridSize="10" guides="1" tooltips="1" connect="1" arrows="1" fold="1" page="1" pageScale="1" pageWidth="827" pageHeight="1169" math="0" shadow="0">
      <root>
        <mxCell id="0" />
        <mxCell id="1" parent="0" />
        <mxCell id="Ik_B3j9c8_kPELzH0QNh-1" value="" style="rounded=0;whiteSpace=wrap;html=1;" vertex="1" parent="1">
          <mxGeometry x="180" y="20" width="470" height="480" as="geometry" />
        </mxCell>
        <mxCell id="Ik_B3j9c8_kPELzH0QNh-2" value="Registration subsystem" style="text;html=1;align=center;verticalAlign=middle;whiteSpace=wrap;rounded=0;" vertex="1" parent="1">
          <mxGeometry x="385" y="30" width="60" height="30" as="geometry" />
        </mxCell>
        <mxCell id="Ik_B3j9c8_kPELzH0QNh-7" value="" style="edgeStyle=orthogonalEdgeStyle;rounded=0;orthogonalLoop=1;jettySize=auto;html=1;entryX=0;entryY=0.5;entryDx=0;entryDy=0;endArrow=none;startFill=0;" edge="1" parent="1" source="Ik_B3j9c8_kPELzH0QNh-4" target="Ik_B3j9c8_kPELzH0QNh-6">
          <mxGeometry relative="1" as="geometry" />
        </mxCell>
        <mxCell id="Ik_B3j9c8_kPELzH0QNh-12" style="edgeStyle=orthogonalEdgeStyle;rounded=0;orthogonalLoop=1;jettySize=auto;html=1;entryX=0;entryY=0.5;entryDx=0;entryDy=0;endArrow=none;startFill=0;" edge="1" parent="1" source="Ik_B3j9c8_kPELzH0QNh-4" target="Ik_B3j9c8_kPELzH0QNh-9">
          <mxGeometry relative="1" as="geometry">
            <Array as="points">
              <mxPoint x="195" y="120" />
              <mxPoint x="195" y="215" />
            </Array>
          </mxGeometry>
        </mxCell>
        <mxCell id="Ik_B3j9c8_kPELzH0QNh-4" value="User" style="shape=umlActor;html=1;verticalLabelPosition=bottom;verticalAlign=top;align=center;" vertex="1" parent="1">
          <mxGeometry x="70" y="75" width="30" height="60" as="geometry" />
        </mxCell>
        <mxCell id="Ik_B3j9c8_kPELzH0QNh-6" value="Enters details" style="ellipse;whiteSpace=wrap;html=1;" vertex="1" parent="1">
          <mxGeometry x="290" y="70" width="140" height="70" as="geometry" />
        </mxCell>
        <mxCell id="Ik_B3j9c8_kPELzH0QNh-10" value="" style="edgeStyle=orthogonalEdgeStyle;rounded=0;orthogonalLoop=1;jettySize=auto;html=1;dashed=1;endArrow=open;endFill=0;" edge="1" parent="1" source="Ik_B3j9c8_kPELzH0QNh-9" target="Ik_B3j9c8_kPELzH0QNh-6">
          <mxGeometry relative="1" as="geometry" />
        </mxCell>
        <mxCell id="Ik_B3j9c8_kPELzH0QNh-11" value="&amp;lt;&amp;lt;include&amp;gt;&amp;gt;" style="edgeLabel;html=1;align=center;verticalAlign=middle;resizable=0;points=[];" vertex="1" connectable="0" parent="Ik_B3j9c8_kPELzH0QNh-10">
          <mxGeometry x="-0.45" relative="1" as="geometry">
            <mxPoint y="-9" as="offset" />
          </mxGeometry>
        </mxCell>
        <mxCell id="Ik_B3j9c8_kPELzH0QNh-9" value="Enters password twice" style="ellipse;whiteSpace=wrap;html=1;" vertex="1" parent="1">
          <mxGeometry x="290" y="180" width="140" height="70" as="geometry" />
        </mxCell>
        <mxCell id="Ik_B3j9c8_kPELzH0QNh-15" value="" style="edgeStyle=orthogonalEdgeStyle;rounded=0;orthogonalLoop=1;jettySize=auto;html=1;endArrow=open;endFill=0;dashed=1;" edge="1" parent="1" source="Ik_B3j9c8_kPELzH0QNh-14" target="Ik_B3j9c8_kPELzH0QNh-9">
          <mxGeometry relative="1" as="geometry" />
        </mxCell>
        <mxCell id="Ik_B3j9c8_kPELzH0QNh-16" value="&amp;lt;&amp;lt;include&amp;gt;&amp;gt;" style="edgeLabel;html=1;align=center;verticalAlign=middle;resizable=0;points=[];" vertex="1" connectable="0" parent="Ik_B3j9c8_kPELzH0QNh-15">
          <mxGeometry x="0.05" relative="1" as="geometry">
            <mxPoint as="offset" />
          </mxGeometry>
        </mxCell>
        <mxCell id="Ik_B3j9c8_kPELzH0QNh-14" value="Redirects to login page" style="ellipse;whiteSpace=wrap;html=1;" vertex="1" parent="1">
          <mxGeometry x="290" y="290" width="140" height="70" as="geometry" />
        </mxCell>
        <mxCell id="Ik_B3j9c8_kPELzH0QNh-21" style="edgeStyle=orthogonalEdgeStyle;rounded=0;orthogonalLoop=1;jettySize=auto;html=1;entryX=0;entryY=0.5;entryDx=0;entryDy=0;endArrow=none;startFill=0;" edge="1" parent="1" source="Ik_B3j9c8_kPELzH0QNh-17" target="Ik_B3j9c8_kPELzH0QNh-20">
          <mxGeometry relative="1" as="geometry" />
        </mxCell>
        <mxCell id="Ik_B3j9c8_kPELzH0QNh-17" value="Authority" style="shape=umlActor;html=1;verticalLabelPosition=bottom;verticalAlign=top;align=center;" vertex="1" parent="1">
          <mxGeometry x="70" y="400" width="30" height="60" as="geometry" />
        </mxCell>
        <mxCell id="Ik_B3j9c8_kPELzH0QNh-18" value="" style="endArrow=block;html=1;rounded=0;align=center;verticalAlign=bottom;endFill=0;labelBackgroundColor=none;endSize=8;exitX=0.5;exitY=0;exitDx=0;exitDy=0;exitPerimeter=0;" edge="1" parent="1" source="Ik_B3j9c8_kPELzH0QNh-17">
          <mxGeometry relative="1" as="geometry">
            <mxPoint x="10" y="299.5" as="sourcePoint" />
            <mxPoint x="85" y="160" as="targetPoint" />
          </mxGeometry>
        </mxCell>
        <mxCell id="Ik_B3j9c8_kPELzH0QNh-24" value="" style="edgeStyle=orthogonalEdgeStyle;rounded=0;orthogonalLoop=1;jettySize=auto;html=1;endArrow=open;endFill=0;dashed=1;" edge="1" parent="1" source="Ik_B3j9c8_kPELzH0QNh-20" target="Ik_B3j9c8_kPELzH0QNh-23">
          <mxGeometry relative="1" as="geometry" />
        </mxCell>
        <mxCell id="Ik_B3j9c8_kPELzH0QNh-20" value="Adds new authority user" style="ellipse;whiteSpace=wrap;html=1;" vertex="1" parent="1">
          <mxGeometry x="295" y="395" width="140" height="70" as="geometry" />
        </mxCell>
        <mxCell id="Ik_B3j9c8_kPELzH0QNh-23" value="notifies user to enter details" style="ellipse;whiteSpace=wrap;html=1;" vertex="1" parent="1">
          <mxGeometry x="500" y="395" width="140" height="70" as="geometry" />
        </mxCell>
      </root>
    </mxGraphModel>
  </diagram>
</mxfile>
